<?xml version="1.0" encoding="UTF-8"?>
<svg width="100px" height="83px" viewBox="0 0 100 83" version="1.1" xmlns="http://www.w3.org/2000/svg" xmlns:xlink="http://www.w3.org/1999/xlink">
    <title>Group</title>
    <g id="Page-1" stroke="none" stroke-width="1" fill="none" fill-rule="evenodd">
        <g id="Group">
            <path d="M100,62 C100,34.3857625 77.6142375,12 50,12 C22.3857625,12 0,34.3857625 0,62 C0,89.6142375 100,89.6142375 100,62 Z" id="Oval" fill="#F7DC6F"></path>
            <path d="M100,53 C100,45.9777516 98.373973,39.3823517 95.666966,33.36518 C94.1517098,29.9970481 95.5297852,28.1162109 92.362793,22.8803711 C89.1958008,17.6445312 86.4586784,18.9145479 84.3827857,16.6979957 C82.1376953,14.3007812 82.2822266,12.0296018 77.9770508,9.0016173 C73.671875,5.97363281 71.3195801,7.51441687 68.6697685,6.60208596 C62.701173,4.5470968 57.3757558,-1.24456001e-13 46.7431641,1 C34.0300329,2.19567567 33.9236013,5.25362745 27.0464334,9.0016173 C24.517995,10.3795917 20.8417969,9.19775391 17.456543,12 C14.0712891,14.8022461 14.7762279,17.7226658 12.4550363,19.978208 C10.3438721,22.0296631 7.14540251,21.6572266 5.16748047,25.7578125 C3.18955843,29.8583984 4.17797852,31.8837891 3.42650126,34.7722783 C1.92702313,40.5358944 0,46.5681816 0,53 C0,59.4318184 1.14485037,58.593177 3.18955843,60.915553 C5.2342665,63.237929 9.69524247,58.2908633 11.6621094,59.5126953 C13.9783711,60.951574 12.7783664,64.757043 15.8271484,65.8408203 C18.7382075,66.87564 22.52675,64.1692954 25.921875,64.8803711 C28.5300259,65.4266228 27.6478456,71.2077903 30.447998,71.5629883 C32.8034396,71.8617749 39.0818481,68.5855111 41.5201332,68.7491101 C44.4605874,68.9464026 45.7008515,73.7861328 48.684082,73.7861328 C51.9137858,73.7868822 55.1665481,68.9788027 58.3426971,68.7491101 C61.5936885,68.5140051 65.5891615,73.1966555 68.6697685,72.7201277 C71.2199069,72.3256562 72.0276908,67.1214321 74.3886719,66.5615234 C76.4544172,66.0716302 81.2232949,69.3656524 83.097168,68.7491101 C86.2789559,67.7022374 84.3000542,62.3275695 86.7578125,60.915553 C88.9715756,59.6437151 94.2064115,63.7336081 95.666966,62.1655273 C97.9070727,59.7605036 100,56.1018908 100,53 Z" id="Oval" fill="#A9DFBF"></path>
            <path d="M68.6906128,6.66308594 C68.1870728,7.87200928 50.3374622,11.8972343 36.9682617,21.5302734 C28.0554614,27.9522995 21.0084237,35.726388 15.8271484,44.8525391" id="Path-13" stroke="#F7DC6F"></path>
            <path d="M84.3655701,16.717865 C83.6222229,17.4818115 71.8781459,18.4708588 57.0441418,29.0258232 C47.1548058,36.0624662 38.9133666,44.3396657 32.3198242,53.8574219" id="Path-14" stroke="#F7DC6F"></path>
            <path d="M95.666966,33.36518 C94.1906781,33.9754706 85.4378493,33.9721328 70.368952,42.83619 C60.3230205,48.7455615 51.7625365,55.5903667 44.6875,63.3706055" id="Path-15" stroke="#F7DC6F"></path>
            <path d="M27.0464334,9.0016173 C27.6414041,10.0782164 50.3013928,16.1860722 64.522742,24.1127258 C74.0036414,29.3971616 81.7310868,35.6366045 87.7050781,42.8310547" id="Path-16" stroke="#F7DC6F"></path>
            <path d="M12.4611647,19.9884033 C13.0600281,20.5037842 32.7932823,24.3252478 47.4668629,32.4210165 C57.2492499,37.8181955 64.9533295,44.3679609 70.5791016,52.0703125" id="Path-17" stroke="#F7DC6F"></path>
            <path d="M3.47265625,34.7124023 C4.14654541,34.9605103 13.6017453,35.4152727 29.6953125,44.3553391 C40.4243573,50.3153833 49.6670331,57.1570606 57.4233398,64.8803711" id="Path-18" stroke="#F7DC6F"></path>
        </g>
    </g>
</svg>