<?xml version="1.0" encoding="UTF-8"?>
<svg width="29px" height="20px" viewBox="0 0 29 20" version="1.1" xmlns="http://www.w3.org/2000/svg" xmlns:xlink="http://www.w3.org/1999/xlink">
    <title>Hamburger Menu</title>
    <g id="Page-1" stroke="none" stroke-width="1" fill="none" fill-rule="evenodd">
        <g id="Desktop-Schedule" transform="translate(-45.000000, -54.000000)">
            <g id="left-panel" transform="translate(1.000000, 0.000000)">
                <g id="background">
                    <polygon id="BG-blur" points="0 0 200 0 200 1027 0 1027"></polygon>
                    <polygon id="Color-burn/Exclusion-blending" fill-opacity="0.100000001" fill="#FFFFFF" style="mix-blend-mode: exclusion;" points="0 0 200 0 200 1027 0 1027"></polygon>
                    <polygon id="Color/tint-Overlay" fill-opacity="0.699999988" fill="#FFFFFF" points="0 0 200 0 200 1027 0 1027"></polygon>
                </g>
                <g id="Hamburger-Menu" transform="translate(44.000000, 54.000000)" fill="#4D8AC5" fill-opacity="0.504616477">
                    <path d="M28.3096495,20 L0.689350622,20 C-0.0374084918,19.9590986 -0.347446346,18.823553 0.689350622,18.7652415 L28.3096495,18.7652415 C28.3386508,18.7668467 28.3673068,18.7684828 28.3963082,18.770088 C29.0698982,18.885044 29.3191714,19.9432011 28.3096495,20 Z M28.3096495,13.7449298 L0.689350622,13.7449298 C-0.0180742826,13.7051397 -0.376102406,12.570088 0.689350622,12.5101713 L28.3096495,12.5101713 C28.3386508,12.5117765 28.3673068,12.5134126 28.3963082,12.5150177 C29.0698982,12.6299429 29.3191714,13.6881309 28.3096495,13.7449298 Z M28.3096495,7.48982868 L0.689350622,7.48982868 C-0.0284318947,7.44945208 -0.347446346,6.31338169 0.689350622,6.25507023 L28.3096495,6.25507023 C28.3386508,6.25667541 28.3673068,6.25831147 28.3963082,6.25991665 C29.0788748,6.37635438 29.2932774,7.43448063 28.3096495,7.48982868 Z M28.3096495,1.23475845 L0.689350622,1.23475845 C0.0927521666,1.20120389 0.0661676289,0.991294953 0.0109270312,0.733045223 C-0.0650287906,0.376570458 0.265033781,0.0238617071 0.689350622,0 L28.3096495,0 C28.3386508,0.00160518599 28.3673068,0.00324124093 28.3963082,0.00484642692 C28.9832395,0.105016206 28.9804775,0.316221639 28.9987759,0.57860781 C29.0222532,0.91322735 28.704965,1.21250193 28.3096495,1.23475845 Z" id="Fill-29"></path>
                </g>
            </g>
        </g>
    </g>
</svg>