<?xml version="1.0" encoding="UTF-8"?>
<svg width="42px" height="33px" viewBox="0 0 42 33" version="1.1" xmlns="http://www.w3.org/2000/svg" xmlns:xlink="http://www.w3.org/1999/xlink">
    <title>Fill 29</title>
    <g id="Page-1" stroke="none" stroke-width="1" fill="none" fill-rule="evenodd">
        <g id="Desktop-Dashboard" transform="translate(-45.000000, -42.000000)">
            <g id="left-panel" transform="translate(1.000000, 1.000000)">
                <g id="background">
                    <polygon id="BG-blur" points="0 0 200 0 200 1027 0 1027"></polygon>
                    <polygon id="Color-burn/Exclusion-blending" fill-opacity="0.100000001" fill="#FFFFFF" style="mix-blend-mode: exclusion;" points="0 0 200 0 200 1027 0 1027"></polygon>
                    <polygon id="Color/tint-Overlay" fill-opacity="0.699999988" fill="#FFFFFF" points="0 0 200 0 200 1027 0 1027"></polygon>
                </g>
                <g id="Hamburger-Menu" transform="translate(44.000000, 41.000000)" fill="#000000">
                    <path d="M41.000182,33 L0.998369866,33 C-0.0541778157,32.9325127 -0.503198157,31.0588625 0.998369866,30.9626486 L41.000182,30.9626486 C41.0421839,30.9652971 41.0836858,30.9679966 41.1256877,30.9706452 C42.1012319,31.1603226 42.4622482,32.9062818 41.000182,33 Z M41.000182,22.6791341 L0.998369866,22.6791341 C-0.0261765472,22.6134805 -0.544700037,20.7406452 0.998369866,20.6417827 L41.000182,20.6417827 C41.0421839,20.6444312 41.0836858,20.6471307 41.1256877,20.6497793 C42.1012319,20.8394058 42.4622482,22.585416 41.000182,22.6791341 Z M41.000182,12.3582173 L0.998369866,12.3582173 C-0.0411772267,12.2915959 -0.503198157,10.4170798 0.998369866,10.3208659 L41.000182,10.3208659 C41.0421839,10.3235144 41.0836858,10.3262139 41.1256877,10.3288625 C42.1142325,10.5209847 42.4247465,12.266893 41.000182,12.3582173 Z M41.000182,2.03735144 L0.998369866,2.03735144 C0.134330724,1.98198642 0.0958289798,1.63563667 0.0158253555,1.20952462 C-0.0941796278,0.621341256 0.383842027,0.0393718166 0.998369866,0 L41.000182,0 C41.0421839,0.00264855688 41.0836858,0.00534804754 41.1256877,0.00799660441 C41.9757262,0.17327674 41.971726,0.521765705 41.9982272,0.954702886 C42.0322287,1.50682513 41.5727079,2.00062818 41.000182,2.03735144 Z" id="Fill-29"></path>
                </g>
            </g>
        </g>
    </g>
</svg>